<?xml version="1.0" encoding="utf-8"?>
<!-- Generator: Adobe Illustrator 23.1.0, SVG Export Plug-In . SVG Version: 6.00 Build 0)  -->
<svg version="1.1" id="Layer_1" xmlns="http://www.w3.org/2000/svg" xmlns:xlink="http://www.w3.org/1999/xlink" x="0px" y="0px"
	 viewBox="0 0 762 930" style="enable-background:new 0 0 762 930;" xml:space="preserve" xmlns:svg="http://www.w3.org/2000/svg">
<style type="text/css">
	.st0{fill:#FF0000;}
	.st1{fill:#FFFFFF;}
</style>
<rect class="st0" width="762" height="930"/>
<g>
	<svg:text fill="red">_missing_graphic_</svg:text>
	<path class="st1" d="M240.3,420.68v31.62h-8.22v-31.62H240.3z"/>
	<path class="st1" d="M261.97,420.68v31.62h-7.2l-4.28-14.38v14.38h-6.88v-31.62h6.88l4.62,14.23v-14.23H261.97L261.97,420.68z"/>
	<path class="st1" d="M282.68,430.25h-7.63v-2.35c0-1.1-0.1-1.78-0.3-2.08s-0.52-0.45-0.98-0.45c-0.5,0-0.87,0.2-1.12,0.6
		c-0.25,0.4-0.38,1.02-0.38,1.83c0,1.05,0.15,1.85,0.43,2.38c0.27,0.53,1.05,1.18,2.32,1.93c3.67,2.17,5.97,3.95,6.92,5.35
		c0.95,1.4,1.43,3.63,1.43,6.73c0,2.25-0.27,3.92-0.78,4.98c-0.52,1.07-1.55,1.97-3.05,2.68c-1.5,0.72-3.27,1.08-5.27,1.08
		c-2.2,0-4.08-0.42-5.63-1.25c-1.55-0.83-2.57-1.9-3.05-3.18c-0.48-1.28-0.72-3.12-0.72-5.48v-2.07h7.63v3.85
		c0,1.18,0.1,1.95,0.32,2.28s0.6,0.5,1.15,0.5c0.55,0,0.95-0.22,1.22-0.65c0.27-0.43,0.4-1.07,0.4-1.92c0-1.87-0.25-3.08-0.77-3.65
		c-0.52-0.57-1.8-1.53-3.85-2.87c-2.05-1.35-3.4-2.33-4.07-2.95s-1.22-1.47-1.65-2.53c-0.43-1.07-0.65-2.47-0.65-4.13
		c0-2.42,0.32-4.2,0.93-5.32c0.62-1.12,1.62-2,3-2.63c1.38-0.63,3.05-0.95,5-0.95c2.13,0,3.95,0.35,5.47,1.03
		c1.52,0.68,2.5,1.57,2.98,2.6c0.48,1.03,0.73,2.83,0.73,5.35v1.27H282.68z"/>
	<path class="st1" d="M285.95,420.68h13.72v6.33h-5.48v6h5.13v6.02h-5.13v6.95h6.03v6.33h-14.25v-31.63H285.95z"/>
	<path class="st1" d="M302.57,420.68h5.82c3.88,0,6.5,0.15,7.88,0.45c1.38,0.3,2.5,1.07,3.37,2.3s1.3,3.2,1.3,5.88
		c0,2.47-0.3,4.12-0.92,4.97c-0.62,0.85-1.82,1.35-3.62,1.52c1.63,0.4,2.72,0.95,3.28,1.62s0.9,1.3,1.05,1.87
		c0.15,0.57,0.2,2.13,0.2,4.68v8.33h-7.63v-10.5c0-1.7-0.13-2.73-0.4-3.15c-0.27-0.42-0.97-0.6-2.1-0.6v14.25h-8.22v-31.62H302.57z
		 M310.8,426.08v7.03c0.92,0,1.57-0.13,1.95-0.38c0.38-0.25,0.55-1.08,0.55-2.47v-1.73c0-1-0.18-1.67-0.53-1.97
		S311.75,426.08,310.8,426.08z"/>
	<path class="st1" d="M340.68,420.68v6.33h-4.88v25.3h-8.22V427h-4.87v-6.33h17.97V420.68z"/>
	<path class="st1" d="M363.82,420.68l4.7,31.62h-8.4l-0.43-5.68h-2.93l-0.5,5.68h-8.5l4.2-31.62H363.82z M359.47,441.02
		c-0.42-3.58-0.83-8.02-1.25-13.28c-0.83,6.05-1.37,10.48-1.58,13.28H359.47z"/>
	<path class="st1" d="M369.92,420.68h8.28c2.23,0,3.97,0.18,5.17,0.53c1.2,0.35,2.12,0.87,2.72,1.52s1.02,1.47,1.23,2.42
		s0.32,2.4,0.32,4.38v2.75c0,2.02-0.22,3.48-0.63,4.42c-0.42,0.93-1.18,1.63-2.3,2.13c-1.12,0.5-2.57,0.75-4.37,0.75h-2.2v12.73
		h-8.22L369.92,420.68L369.92,420.68z M378.13,426.08v8.05c0.23,0.02,0.43,0.02,0.6,0.02c0.75,0,1.28-0.18,1.57-0.55
		c0.28-0.37,0.43-1.15,0.43-2.32v-2.6c0-1.08-0.17-1.78-0.5-2.12C379.9,426.23,379.2,426.08,378.13,426.08z"/>
	<path class="st1" d="M390,420.68h8.28c2.23,0,3.97,0.18,5.17,0.53c1.2,0.35,2.12,0.87,2.72,1.52c0.6,0.65,1.02,1.47,1.23,2.42
		s0.32,2.4,0.32,4.38v2.75c0,2.02-0.22,3.48-0.63,4.42s-1.18,1.63-2.3,2.13c-1.12,0.5-2.57,0.75-4.37,0.75h-2.2v12.73H390V420.68z
		 M398.22,426.08v8.05c0.23,0.02,0.43,0.02,0.6,0.02c0.75,0,1.28-0.18,1.57-0.55c0.28-0.37,0.43-1.15,0.43-2.32v-2.6
		c0-1.08-0.17-1.78-0.5-2.12C399.98,426.23,399.28,426.08,398.22,426.08z"/>
	<path class="st1" d="M418.3,420.68v25.3h5v6.33h-13.22V420.7h8.22V420.68z"/>
	<path class="st1" d="M433.52,420.68v31.62h-8.22v-31.62H433.52z"/>
	<path class="st1" d="M456.02,434.45h-8.22v-5.5c0-1.6-0.08-2.6-0.27-3c-0.18-0.4-0.57-0.6-1.17-0.6c-0.68,0-1.1,0.23-1.28,0.72
		c-0.18,0.48-0.27,1.52-0.27,3.13v14.68c0,1.53,0.08,2.53,0.27,3c0.18,0.47,0.6,0.7,1.23,0.7c0.62,0,1.02-0.23,1.2-0.7
		c0.18-0.47,0.28-1.57,0.28-3.32v-3.97h8.22v1.23c0,3.27-0.23,5.6-0.7,6.97c-0.47,1.37-1.48,2.57-3.07,3.6
		c-1.58,1.03-3.53,1.55-5.85,1.55c-2.42,0-4.4-0.43-5.95-1.32s-2.6-2.08-3.1-3.62s-0.77-3.87-0.77-6.97v-9.23
		c0-2.28,0.08-3.98,0.23-5.13c0.15-1.15,0.62-2.23,1.4-3.28s1.85-1.88,3.22-2.48c1.37-0.6,2.95-0.9,4.73-0.9c2.42,0,4.42,0.47,6,1.4
		c1.58,0.93,2.62,2.1,3.1,3.5c0.5,1.4,0.75,3.57,0.75,6.52V434.45z"/>
	<path class="st1" d="M473.17,420.68l4.7,31.62h-8.4l-0.43-5.68h-2.93l-0.5,5.68h-8.5l4.2-31.62H473.17z M468.82,441.02
		c-0.42-3.58-0.83-8.02-1.25-13.28c-0.83,6.05-1.37,10.48-1.58,13.28H468.82z"/>
	<path class="st1" d="M479.27,420.68h8.2c2.58,0,4.55,0.2,5.88,0.6c1.33,0.4,2.42,1.22,3.23,2.45s1.23,3.22,1.23,5.95
		c0,1.85-0.28,3.13-0.87,3.87c-0.58,0.73-1.72,1.28-3.43,1.68c1.9,0.43,3.18,1.15,3.87,2.13c0.68,1,1.02,2.52,1.02,4.58v2.93
		c0,2.13-0.25,3.72-0.73,4.75c-0.48,1.03-1.27,1.73-2.33,2.12c-1.07,0.38-3.25,0.57-6.57,0.57h-9.52v-31.63H479.27z M487.5,426.08
		v7.03c0.35-0.02,0.63-0.02,0.82-0.02c0.8,0,1.32-0.2,1.55-0.6s0.33-1.53,0.33-3.4c0-0.98-0.08-1.68-0.27-2.08
		c-0.18-0.4-0.42-0.65-0.72-0.75C488.92,426.17,488.33,426.1,487.5,426.08z M487.5,438.03v8.85c1.17-0.03,1.9-0.22,2.22-0.55
		c0.32-0.33,0.48-1.13,0.48-2.4v-2.95c0-1.35-0.15-2.17-0.43-2.47S488.72,438.08,487.5,438.03z"/>
	<path class="st1" d="M509.58,420.68v25.3h5v6.33h-13.22V420.7h8.22V420.68z"/>
	<path class="st1" d="M516.58,420.68h13.72v6.33h-5.48v6h5.13v6.02h-5.13v6.95h6.03v6.33H516.6v-31.63H516.58z"/>
	<path class="st1" d="M262.47,468.68v31.62h-7.18l-0.02-21.35l-2.87,21.35h-5.1l-3.02-20.87l-0.02,20.87h-7.18v-31.62h10.63
		c0.32,1.9,0.63,4.15,0.98,6.72l1.17,8.05l1.88-14.77H262.47z"/>
	<path class="st1" d="M273.98,468.68v31.62h-8.22v-31.62H273.98z"/>
	<path class="st1" d="M294.72,478.25h-7.63v-2.35c0-1.1-0.1-1.78-0.3-2.08c-0.2-0.3-0.52-0.45-0.98-0.45c-0.5,0-0.87,0.2-1.12,0.6
		s-0.38,1.02-0.38,1.83c0,1.05,0.15,1.85,0.43,2.38c0.27,0.53,1.05,1.18,2.32,1.93c3.67,2.17,5.97,3.95,6.92,5.35
		s1.43,3.63,1.43,6.73c0,2.25-0.27,3.92-0.78,4.98c-0.52,1.07-1.55,1.97-3.05,2.68c-1.5,0.72-3.27,1.08-5.27,1.08
		c-2.2,0-4.08-0.42-5.63-1.25c-1.55-0.83-2.57-1.9-3.05-3.18c-0.48-1.28-0.72-3.12-0.72-5.48v-2.07h7.63v3.85
		c0,1.18,0.1,1.95,0.32,2.28s0.6,0.5,1.15,0.5c0.55,0,0.95-0.22,1.22-0.65c0.27-0.43,0.4-1.07,0.4-1.92c0-1.87-0.25-3.08-0.77-3.65
		s-1.8-1.53-3.85-2.87c-2.05-1.35-3.4-2.33-4.07-2.95s-1.22-1.47-1.65-2.53c-0.43-1.07-0.65-2.47-0.65-4.13
		c0-2.42,0.32-4.2,0.93-5.32s1.62-2,3-2.63c1.38-0.63,3.05-0.95,5-0.95c2.13,0,3.95,0.35,5.47,1.03c1.52,0.68,2.5,1.57,2.98,2.6
		c0.48,1.03,0.73,2.83,0.73,5.35v1.27H294.72z"/>
	<path class="st1" d="M315.4,478.25h-7.63v-2.35c0-1.1-0.1-1.78-0.3-2.08s-0.52-0.45-0.98-0.45c-0.5,0-0.87,0.2-1.12,0.6
		c-0.25,0.4-0.38,1.02-0.38,1.83c0,1.05,0.15,1.85,0.43,2.38c0.27,0.53,1.05,1.18,2.32,1.93c3.67,2.17,5.97,3.95,6.92,5.35
		c0.95,1.4,1.43,3.63,1.43,6.73c0,2.25-0.27,3.92-0.78,4.98c-0.52,1.07-1.55,1.97-3.05,2.68c-1.5,0.72-3.27,1.08-5.27,1.08
		c-2.2,0-4.08-0.42-5.63-1.25c-1.55-0.83-2.57-1.9-3.05-3.18c-0.48-1.28-0.72-3.12-0.72-5.48v-2.07h7.63v3.85
		c0,1.18,0.1,1.95,0.32,2.28s0.6,0.5,1.15,0.5c0.55,0,0.95-0.22,1.22-0.65c0.27-0.43,0.4-1.07,0.4-1.92c0-1.87-0.25-3.08-0.77-3.65
		c-0.52-0.57-1.8-1.53-3.85-2.87c-2.05-1.35-3.4-2.33-4.07-2.95s-1.22-1.47-1.65-2.53c-0.43-1.07-0.65-2.47-0.65-4.13
		c0-2.42,0.32-4.2,0.93-5.32c0.62-1.12,1.62-2,3-2.63c1.38-0.63,3.05-0.95,5-0.95c2.13,0,3.95,0.35,5.47,1.03
		c1.52,0.68,2.5,1.57,2.98,2.6c0.48,1.03,0.73,2.83,0.73,5.35v1.27H315.4z"/>
	<path class="st1" d="M326.88,468.68v31.62h-8.22v-31.62H326.88z"/>
	<path class="st1" d="M348.53,468.68v31.62h-7.2l-4.28-14.38v14.38h-6.88v-31.62h6.88l4.62,14.23v-14.23H348.53z"/>
	<path class="st1" d="M370.7,480.32h-8.22v-2.87c0-1.82-0.08-2.95-0.23-3.4s-0.53-0.68-1.12-0.68c-0.5,0-0.85,0.2-1.03,0.58
		c-0.18,0.38-0.27,1.4-0.27,3v15.18c0,1.42,0.08,2.35,0.27,2.8c0.18,0.45,0.55,0.67,1.1,0.67c0.6,0,1-0.25,1.22-0.77
		s0.32-1.5,0.32-2.97v-3.75h-1.67v-4.78h9.63v16.97h-5.17l-0.77-2.27c-0.57,0.98-1.27,1.72-2.12,2.2c-0.85,0.48-1.87,0.73-3.02,0.73
		c-1.38,0-2.67-0.33-3.88-1c-1.2-0.67-2.12-1.5-2.75-2.48c-0.63-0.98-1.02-2.03-1.17-3.12c-0.15-1.08-0.23-2.72-0.23-4.9v-9.4
		c0-3.02,0.17-5.22,0.48-6.58c0.32-1.37,1.27-2.62,2.8-3.77c1.53-1.15,3.53-1.72,5.98-1.72c2.42,0,4.4,0.5,6,1.48
		c1.6,0.98,2.62,2.17,3.1,3.53c0.48,1.37,0.72,3.33,0.72,5.93v1.37H370.7z"/>
	<path class="st1" d="M399.8,480.32h-8.22v-2.87c0-1.82-0.08-2.95-0.23-3.4s-0.53-0.68-1.12-0.68c-0.5,0-0.85,0.2-1.03,0.58
		c-0.18,0.38-0.27,1.4-0.27,3v15.18c0,1.42,0.08,2.35,0.27,2.8c0.18,0.45,0.55,0.67,1.1,0.67c0.6,0,1-0.25,1.22-0.77
		s0.32-1.5,0.32-2.97v-3.75h-1.67v-4.78h9.63v16.97h-5.17l-0.77-2.27c-0.57,0.98-1.27,1.72-2.12,2.2c-0.85,0.48-1.87,0.73-3.02,0.73
		c-1.38,0-2.67-0.33-3.88-1c-1.22-0.67-2.12-1.5-2.75-2.48c-0.63-0.98-1.02-2.03-1.17-3.12c-0.15-1.08-0.23-2.72-0.23-4.9v-9.4
		c0-3.02,0.17-5.22,0.48-6.58c0.32-1.37,1.27-2.62,2.8-3.77c1.53-1.15,3.53-1.72,5.98-1.72c2.42,0,4.4,0.5,6,1.48
		c1.6,0.98,2.62,2.17,3.1,3.53c0.48,1.37,0.72,3.33,0.72,5.93v1.37H399.8z"/>
	<path class="st1" d="M402.98,468.68h5.82c3.88,0,6.5,0.15,7.88,0.45s2.5,1.07,3.37,2.3c0.87,1.23,1.3,3.2,1.3,5.88
		c0,2.47-0.3,4.12-0.92,4.97c-0.62,0.85-1.82,1.35-3.62,1.52c1.63,0.4,2.72,0.95,3.28,1.62c0.57,0.67,0.9,1.3,1.05,1.87
		s0.2,2.13,0.2,4.68v8.33h-7.63v-10.5c0-1.7-0.13-2.73-0.4-3.15c-0.27-0.42-0.97-0.6-2.1-0.6v14.25H403v-31.62H402.98z
		 M411.22,474.08v7.03c0.92,0,1.57-0.13,1.95-0.38c0.38-0.25,0.55-1.08,0.55-2.47v-1.73c0-1-0.18-1.67-0.53-1.97
		C412.83,474.27,412.17,474.08,411.22,474.08z"/>
	<path class="st1" d="M438.75,468.68l4.7,31.62h-8.4l-0.43-5.68h-2.95l-0.5,5.68h-8.5l4.2-31.62H438.75z M434.38,489.02
		c-0.42-3.58-0.83-8-1.25-13.28c-0.83,6.05-1.37,10.48-1.58,13.28H434.38z"/>
	<path class="st1" d="M444.85,468.68h8.28c2.23,0,3.97,0.18,5.17,0.53c1.2,0.35,2.12,0.87,2.72,1.52c0.6,0.65,1.02,1.47,1.23,2.42
		s0.32,2.4,0.32,4.38v2.75c0,2.02-0.22,3.48-0.63,4.42c-0.42,0.93-1.18,1.63-2.3,2.13c-1.12,0.5-2.57,0.75-4.37,0.75h-2.2v12.73
		h-8.22V468.68z M453.07,474.08v8.05c0.23,0.02,0.43,0.02,0.6,0.02c0.75,0,1.28-0.18,1.57-0.55s0.43-1.15,0.43-2.32v-2.6
		c0-1.08-0.17-1.78-0.5-2.12C454.83,474.23,454.13,474.08,453.07,474.08z"/>
	<path class="st1" d="M483.83,468.68v31.62h-8.22v-13.28h-2.47v13.28h-8.22v-31.62h8.22V480h2.47v-11.32H483.83z"/>
	<path class="st1" d="M495.35,468.68v31.62h-8.22v-31.62H495.35z"/>
	<path class="st1" d="M517.85,482.45h-8.22v-5.5c0-1.6-0.08-2.6-0.27-3c-0.18-0.4-0.57-0.6-1.17-0.6c-0.68,0-1.1,0.23-1.28,0.72
		c-0.18,0.48-0.27,1.52-0.27,3.13v14.68c0,1.53,0.08,2.53,0.27,3c0.18,0.47,0.6,0.7,1.23,0.7c0.62,0,1.02-0.23,1.2-0.7
		c0.18-0.47,0.28-1.57,0.28-3.32v-3.97h8.22v1.23c0,3.27-0.23,5.6-0.7,6.97s-1.48,2.57-3.07,3.6c-1.58,1.03-3.53,1.55-5.85,1.55
		c-2.42,0-4.4-0.43-5.95-1.32s-2.6-2.08-3.1-3.62s-0.77-3.87-0.77-6.97v-9.23c0-2.28,0.08-3.98,0.23-5.13
		c0.15-1.15,0.62-2.23,1.4-3.28s1.85-1.88,3.22-2.48c1.37-0.6,2.95-0.9,4.73-0.9c2.42,0,4.42,0.47,6,1.4c1.58,0.93,2.62,2.1,3.1,3.5
		c0.5,1.4,0.75,3.57,0.75,6.53V482.45z"/>
	<path class="st1" d="M525.83,493.85v6.45h-5.95v-6.45H525.83z"/>
</g>
</svg>
